<svg xmlns="http://www.w3.org/2000/svg" xmlns:xlink="http://www.w3.org/1999/xlink" width="380" height="146" viewBox="0 0 380 146">
  <defs>
    <clipPath id="clip-path">
      <rect id="Rectangle_1560" data-name="Rectangle 1560" width="380" height="146" fill="#fff"/>
    </clipPath>
  </defs>
  <g id="nutrical-logo-brand-g" clip-path="url(#clip-path)">
    <path id="Path_6202" data-name="Path 6202" d="M268.026,146l-9.954-1.247a78.9,78.9,0,0,1-14.041-4.1,70.355,70.355,0,0,1-22.217-14.422,70.332,70.332,0,0,1-17.6-25.639,70.263,70.263,0,0,1-5.332-26.707,75.47,75.47,0,0,1,1.777-16.737A72.088,72.088,0,0,1,240.476,7.479,74.578,74.578,0,0,1,254.7,2.493a70.8,70.8,0,0,1,25.239-1.424A72.812,72.812,0,0,1,319.569,18.7a74.42,74.42,0,0,1,15.819,19.763,70.259,70.259,0,0,1,6.22,15.668A70.823,70.823,0,0,1,344.1,76.206a76.727,76.727,0,0,1-3.377,18.873,41.12,41.12,0,0,1-1.778,4.985,3.024,3.024,0,0,0,2.489,3.739c.355,0,.71-.356,1.066-.534a20.427,20.427,0,0,1,10.664-6.232,21.38,21.38,0,1,1-15.107,29.022,18.9,18.9,0,0,1-1.067-12.107c.178-1.068,0-1.6-1.066-1.958a2.933,2.933,0,0,0-3.555,1.068,72.373,72.373,0,0,1-30.748,26.351,63.576,63.576,0,0,1-17.952,5.52l-3.377.534c-.355,0-.888,0-.711.534ZM325.967,45.937c.178,0,.356,0,.178-.178h-9.064c-.178,0-.534-.178-.711.356a6.067,6.067,0,0,0-.178,1.781v53.237c.355.356.889.178,1.422.178H324.9c1.422,0,1.777-.357,1.777-1.6V47.54c0-.356.178-.89-.355-1.246ZM287.754,60.894a10.824,10.824,0,0,0-4.8,0,31.066,31.066,0,0,0-13.685,4.451.884.884,0,0,0-.353.241.89.89,0,0,0-.2.805.906.906,0,0,0,.2.379c.889,1.424,1.6,3.027,2.311,4.451s.711,1.068,1.6.534a19.005,19.005,0,0,1,8.532-3.561h6.4c4.444,1.424,5.51,5.342,5.155,9.259,0,.534-.356.356-.711.178a23.252,23.252,0,0,0-4.8-1.068h-5.51c-.711,0-1.422-.356-1.955.356h-1.422a17.405,17.405,0,0,0-7.643,3.383A11.226,11.226,0,0,0,266.6,90.984a11.218,11.218,0,0,0,5.865,9.08c6.221,3.2,12.264,2.315,17.951-1.246a38.876,38.876,0,0,0,4.088-3.739c.178,3.383,1.244,5.7,4.621,6.41a6.926,6.926,0,0,0,4.621,0l1.6-.356c.711-.535.356-1.247.356-1.959a27.3,27.3,0,0,0-.178-6.588c-.889-.356-2.311-.356-2.133-1.959V75.137c0-.356.178-.712-.355-.712a13.717,13.717,0,0,0-6.221-10.683A18.106,18.106,0,0,0,287.754,60.894Zm-53.321,40.6h-.177a27.2,27.2,0,0,0,6.576,0H240.3a28.408,28.408,0,0,0,7.642-1.959,20.45,20.45,0,0,0,11.02-9.437c.355-.712.355-1.068-.356-1.6l-6.576-3.739c-.888-.534-1.244-.534-1.777.356a13.327,13.327,0,0,1-12.086,7.122A13.856,13.856,0,0,1,225.724,86a19.972,19.972,0,0,1-2.31-19.407c2.133-5.342,5.865-9.259,11.73-9.971s11.731,1.068,14.93,7.122c.356.534.711.712,1.244.178l6.754-4.451c.533-.356.533-.712.178-1.424a24.745,24.745,0,0,0-3.732-4.807,22.728,22.728,0,0,0-16.174-6.054A25.042,25.042,0,0,0,217.193,56.8a26.92,26.92,0,0,0-5.332,22.79C214.171,90.628,223.058,100.064,234.433,101.489Z" fill="#e9b03d"/>
    <path id="Path_6203" data-name="Path 6203" d="M9.42,101.133c-3.2.356-6.221,0-9.42.178V47.362a62.636,62.636,0,0,1,8.176.178c-2.133,0-4.266.178-6.576,0S.178,47.718.178,48.965c.178,16.915,0,33.829,0,50.744,0,.89.355,1.246,1.422,1.246A58,58,0,0,1,9.42,101.133Z" fill="#94797c"/>
    <path id="Path_6204" data-name="Path 6204" d="M9.42,101.132a58,58,0,0,0-7.82-.178c-1.066,0-1.422-.356-1.422-1.247,0-16.915.178-33.829,0-50.744,0-1.246.533-1.424,1.422-1.424H8.176L19.018,61.071l16,20.119,1.066,1.246v-33.3c0-1.246.178-1.6,1.422-1.6h8c2.666,0,1.066.356,1.066,1.068v51.456c0,.891-.355,1.069-1.066,1.069H39.28a2.132,2.132,0,0,1-1.955-.891L11.908,68.549l-1.066-1.424c-.533.356-.356.712-.356,1.068v32.761H9.42Z" fill="#005"/>
    <path id="Path_6205" data-name="Path 6205" d="M97.221,89.737c0,1.246.178,2.315,1.777,2.671s.533.356.533.89v7.122c0,.534,0,.712-.533.89a19.131,19.131,0,0,1-5.51.178,5.338,5.338,0,0,1-4.8-5.341,7.314,7.314,0,0,1-.178-2.137,18.669,18.669,0,0,1-8.354,6.588,23.259,23.259,0,0,1-9.242,1.246c-5.51-.534-9.064-3.917-10.309-9.615a25.511,25.511,0,0,1-.533-5.163c.533-.534.355-1.068.355-1.6,0-7.478,0-14.778-.178-22.078,0-1.246.533-1.6,1.777-1.6h8.176V84.039a17.656,17.656,0,0,0,.533,4.273A6.041,6.041,0,0,0,78.2,93.12a11.379,11.379,0,0,0,8.531-6.766,2.14,2.14,0,0,0,.178-1.424c.178-7.834.178-15.49.178-23.146h8.176c1.244,0,1.6.356,1.6,1.6V87.956C96.866,88.491,96.688,89.2,97.221,89.737Z" fill="#005"/>
    <path id="Path_6206" data-name="Path 6206" d="M113.218,81.548V70.509c0-.89-.177-1.246-1.244-1.246s-3.021.712-3.732-.356-.356-2.493-.178-3.739-.533-2.671.178-3.383,2.133-.356,3.377-.178,1.6-.356,1.6-1.6,0-6.766-.177-10.149.355-1.246,1.244-1.246h7.82c1.067,0,1.244.356,1.244,1.246v10.5c0,.89.178,1.246,1.244,1.068s3.911.178,6.043,0,1.067.178,1.067,1.068v5.519c0,1.068-.178,1.424-1.244,1.246s-4.088.178-6.043,0-1.067.356-1.067,1.246V88.492a3.556,3.556,0,0,0,4.088,3.917,12.6,12.6,0,0,0,4.444-1.068q.888-.534,1.066.534l1.6,6.41a.714.714,0,0,1,.022.679.7.7,0,0,1-.228.265.711.711,0,0,1-.328.124,22.893,22.893,0,0,1-12.8,2.314,8.54,8.54,0,0,1-8-8.724C113.041,89.2,113.218,85.465,113.218,81.548Z" fill="#005"/>
    <path id="Path_6207" data-name="Path 6207" d="M153.031,69.084a22.246,22.246,0,0,1,6.932-6.588,13.134,13.134,0,0,1,6.4-1.6.888.888,0,0,1,.829.238.89.89,0,0,1,.237.831,49.965,49.965,0,0,0,0,7.3c0,.89-.356,1.068-1.066,1.068a24.316,24.316,0,0,0-7.11,1.6,11.553,11.553,0,0,0-3.732,2.849,5.349,5.349,0,0,0-1.6,4.1V99.709c0,1.068-.178,1.6-1.422,1.424h-7.82c-.711,0-1.067-.178-1.067-1.068V62.5c0-.712.178-1.068,1.067-1.068a52.158,52.158,0,0,0,7.465,0c.711,0,.888.178.888,1.068Z" fill="#005"/>
    <path id="Path_6208" data-name="Path 6208" d="M186.8,61.783v13.71c0,8.012,0,16.024.178,24.037,0,1.424-.533,1.6-1.778,1.6h-8.175V63.386c-.178-1.246.355-1.6,1.6-1.6Z" fill="#005"/>
    <path id="Path_6209" data-name="Path 6209" d="M187.512,47.184a5.156,5.156,0,0,1-5.688,5.341,5.367,5.367,0,1,1,0-10.683,5.161,5.161,0,0,1,5.688,5.341Z" fill="#005"/>
    <path id="Path_6210" data-name="Path 6210" d="M186.8,61.783h-8.176c-1.244,0-1.777.356-1.6,1.6v37.569c-.534-.178-.356-.712-.356-1.247V62.851c0-1.068.178-1.424,1.422-1.424h7.465C188.044,61.427,186.622,61.249,186.8,61.783Z" fill="#231e56"/>
    <path id="Path_6211" data-name="Path 6211" d="M97.221,89.737c-.533-.534-.355-1.246-.355-1.78V63.386c0-1.246-.355-1.6-1.6-1.6H87.09c0-.534.533-.356.711-.356,2.844,0,5.688.178,8.531,0s.889.356.889,1.068Z" fill="#231e56"/>
    <path id="Path_6212" data-name="Path 6212" d="M70.205,61.784H62.029c-1.244,0-1.777.356-1.777,1.6.178,7.3.178,14.6.178,22.078,0,.534.178,1.068-.355,1.6V62.318c0-.534,0-.89.711-.89H69.85a.356.356,0,0,1,.355.356Z" fill="#231e56"/>
    <path id="Path_6213" data-name="Path 6213" d="M9.775,101.133h.711C10.309,101.311,10.131,101.311,9.775,101.133Z" fill="#94797c"/>
    <path id="Path_6214" data-name="Path 6214" d="M234.433,101.489c-11.375-1.425-20.262-10.861-22.572-21.9a26.92,26.92,0,0,1,5.332-22.79,25.042,25.042,0,0,1,21.151-9.615,22.729,22.729,0,0,1,16.174,6.054,24.787,24.787,0,0,1,3.732,4.807c.355.712.355,1.068-.178,1.424l-6.754,4.451c-.533.534-.888.356-1.244-.178-3.2-6.054-8.709-7.834-14.93-7.122s-9.6,4.629-11.73,9.971A19.972,19.972,0,0,0,225.724,86a13.856,13.856,0,0,0,12.442,6.232,13.327,13.327,0,0,0,12.086-7.122c.533-.89.889-.89,1.777-.356l6.576,3.739c.711.534.711.89.356,1.6a20.45,20.45,0,0,1-11.02,9.437,28.4,28.4,0,0,1-7.642,1.959Z" fill="#005"/>
    <path id="Path_6215" data-name="Path 6215" d="M281.356,68.193a19,19,0,0,0-8.531,3.561c-.889.534-1.244.356-1.6-.534a36.575,36.575,0,0,0-2.311-4.451.885.885,0,0,1-.2-.379.891.891,0,0,1,.553-1.046,31.069,31.069,0,0,1,13.686-4.451h4.8a18.106,18.106,0,0,1,9.065,2.849,13.712,13.712,0,0,1,6.22,10.683V88.846c0,.534-.177,1.246.356,1.781s1.244,1.6,2.133,1.959-.178,5.7-.178,8.547l-1.6.356H299.13c-3.377-.712-4.443-3.027-4.621-6.41a38.964,38.964,0,0,1-4.088,3.739c-5.688,3.561-11.731,4.451-17.951,1.246a11.216,11.216,0,0,1-5.866-9.08A11.229,11.229,0,0,1,270.87,80.3a17.4,17.4,0,0,1,7.643-3.383h1.422a52.143,52.143,0,0,1,7.464,0,23.231,23.231,0,0,1,4.8,1.068c.356.178.711.356.711-.178.356-3.917-.711-7.834-5.154-9.258h-1.066A9.052,9.052,0,0,0,281.356,68.193Zm11.553,18.7c0-3.739.534-3.027-2.843-3.917a8.874,8.874,0,0,0-2.311-.534,12.776,12.776,0,0,0-8.531,1.246,4.988,4.988,0,0,0-3.022,5.341,5.519,5.519,0,0,0,3.733,4.807,9.936,9.936,0,0,0,8.886-1.068C291.31,91.517,293.443,89.914,292.909,86.888Z" fill="#005"/>
    <path id="Path_6216" data-name="Path 6216" d="M316.193,101.133V47.9a6.066,6.066,0,0,1,.177-1.781c2.666,0,5.51.178,8.354,0s1.422.356,1.422,1.424c-.178,17.271-.178,34.541,0,51.99a1.6,1.6,0,0,1-.711,1.425Z" fill="#005"/>
    <path id="Path_6217" data-name="Path 6217" d="M325.436,100.954a1.588,1.588,0,0,0,.544-.617,1.611,1.611,0,0,0,.167-.807c-.178-17.449-.178-34.719,0-51.99,0-1.068-.356-1.424-1.422-1.424h1.244a.356.356,0,0,1,.355.356v53.771C326.324,100.954,326.147,101.132,325.436,100.954Z" fill="#231e56"/>
    <path id="Path_6218" data-name="Path 6218" d="M325.436,100.954c.711.178.888,0,.888-.712V46.293c.534.356.356.89.356,1.246V99.708c0,1.246-.356,1.6-1.778,1.6h-7.287c-.533,0-1.066.178-1.422-.178Z" fill="#94797c"/>
    <path id="Path_6219" data-name="Path 6219" d="M303.4,90.628c-.534-.534-.356-1.246-.356-1.78V74.426c.533,0,.356.356.356.712Z" fill="#94797c"/>
    <path id="Path_6220" data-name="Path 6220" d="M325.969,45.937h-9.6c.178-.534.533-.356.711-.356h9.065C326.324,45.937,326.147,45.937,325.969,45.937Z" fill="#94797c"/>
    <path id="Path_6221" data-name="Path 6221" d="M305.352,101.132c0-2.849.177-5.7.177-8.546a27.3,27.3,0,0,1,.178,6.588C305.707,99.886,306.063,100.6,305.352,101.132Z" fill="#94797c"/>
    <path id="Path_6222" data-name="Path 6222" d="M287.4,76.74a52.186,52.186,0,0,0-7.465,0c.533-.712,1.244-.356,1.955-.356h5.51Z" fill="#94797c"/>
    <path id="Path_6223" data-name="Path 6223" d="M234.434,101.488h6.4a27.094,27.094,0,0,1-6.576,0Z" fill="#94797c"/>
    <path id="Path_6224" data-name="Path 6224" d="M281.355,68.193a9.051,9.051,0,0,1,5.333,0Z" fill="#94797c"/>
    <path id="Path_6225" data-name="Path 6225" d="M299.131,101.488h4.621A6.914,6.914,0,0,1,299.131,101.488Z" fill="#94797c"/>
    <path id="Path_6226" data-name="Path 6226" d="M287.754,60.894h-4.8A11,11,0,0,1,287.754,60.894Z" fill="#94797c"/>
    <path id="Path_6227" data-name="Path 6227" d="M292.91,86.889c.533,3.027-1.6,4.629-4.088,5.876a9.939,9.939,0,0,1-8.887,1.068,5.516,5.516,0,0,1-3.732-4.807,4.985,4.985,0,0,1,3.021-5.341,12.778,12.778,0,0,1,8.532-1.246,8.876,8.876,0,0,1,2.31.534C293.443,83.862,292.91,83.15,292.91,86.889Z" fill="#f3ad1b"/>
  </g>
</svg>
